# AST/ASF file generated using VICON BodyLanguage
# -----------------------------------------------
:version 1.10
:name VICON
:units
  mass 1.0
  length 0.45
  angle deg
:documentation
   .ast/.asf automatically generated from VICON data using
   VICON BodyBuilder and BodyLanguage model FoxedUp or BRILLIANT.MOD
:root
   order TX TY TZ RX RY RZ
   axis XYZ
   position 0 0 0  
   orientation 0 0 0 
:bonedata
  begin
     id 1 
     name lhipjoint
     direction 0.690799 -0.707083 0.151096 
     length 2.54797 
     axis 0 0 0  XYZ
  end
  begin
     id 2 
     name lfemur
     direction 0.34202 -0.939693 0  
     length 7.21646  
     axis 0 0 20  XYZ
    dof rx ry rz
    limits (-160.0 20.0)
           (-70.0 70.0)
           (-60.0 70.0)
  end
  begin
     id 3 
     name ltibia
     direction 0.34202 -0.939693 0   
     length 8.16759   
     axis 0 0 20   XYZ
    dof rx
    limits (-10.0 170.0)
  end
  begin
     id 4 
     name lfoot
     direction 0.0487203 -0.133858 0.989802   
     length 1.93375   
     axis -90 7.62852e-016 20   XYZ
    dof rx rz
    limits (-45.0 90.0)
           (-70.0 20.0)
  end
  begin
     id 5 
     name ltoes
     direction 1.53453e-011 -4.21783e-011 1   
     length 0.979747   
     axis -90 7.62852e-016 20   XYZ
    dof rx
    limits (-90.0 20.0)
  end
  begin
     id 6 
     name rhipjoint
     direction -0.694693 -0.703425 0.150315   
     length 2.56122  
     axis 0 0 0  XYZ 
  end
  begin
     id 7 
     name rfemur
     direction -0.34202 -0.939693 0   
     length 7.36786   
     axis 0 0 -20   XYZ
    dof rx ry rz
    limits (-160.0 20.0)
           (-70.0 70.0)
           (-70.0 60.0)
  end
  begin
     id 8 
     name rtibia
     direction -0.34202 -0.939693 0   
     length 8.07288   
     axis 0 0 -20   XYZ
    dof rx
    limits (-10.0 170.0)
 end
 begin
     id 9 
     name rfoot
     direction -0.0428397 -0.117701 0.992125   
     length 1.88295  
     axis -90 -7.62852e-016 -20   XYZ
    dof rx rz
    limits (-45.0 90.0)
           (-20.0 70.0)
  end
  begin
     id 10 
     name rtoes
     direction -1.53456e-011 -4.2187e-011 1   
     length 0.955578   
     axis -90 -7.62852e-016 -20   XYZ
    dof rx
    limits (-90.0 20.0)
  end
  begin
     id 11 
     name lowerback
     direction 0.0288145 0.999398 -0.0193241   
     length 1.92149   
     axis 0 0 0   XYZ
    dof rx ry rz
    limits (-20.0 45.0)
           (-30.0 30.0)
           (-30.0 30.0)
  end
  begin
     id 12 
     name upperback
     direction 0.0233784 0.998099 0.0570278   
     length 1.90435   
     axis 0 0 0   XYZ
    dof rx ry rz
    limits (-20.0 45.0)
           (-30.0 30.0)
           (-30.0 30.0)
  end
  begin
     id 13 
     name thorax
     direction 0.0096694 0.997833 0.0650817   
     length 1.9111   
     axis 0 0 0   XYZ
    dof rx ry rz
    limits (-20.0 45.0)
           (-30.0 30.0)
           (-30.0 30.0)
  end
  begin
     id 14 
     name lowerneck
     direction 0.00516803 0.999916 0.0118722   
     length 1.74664   
     axis 0 0 0   XYZ
    dof rx ry rz
    limits (-20.0 45.0)
           (-30.0 30.0)
           (-30.0 30.0)
  end
  begin
     id 15 
     name upperneck
     direction -0.0510851 0.996117 -0.071696   
     length 1.68498   
     axis 0 0 0   XYZ
    dof rx ry rz
    limits (-20.0 45.0)
           (-30.0 30.0)
           (-30.0 30.0)
  end
  begin
     id 16
     name head
     direction -0.019188 0.999436 -0.0275702  
     length 1.83483  
     axis 0 0 0   XYZ
    dof rx ry rz
    limits (-20.0 45.0)
           (-30.0 30.0)
           (-30.0 30.0)
  end
  begin
     id 17 
     name lclavicle
     direction 0.967006 0.248456 -0.0562957  
     length 3.39395  
     axis 0 0 0   XYZ
    dof ry rz
    limits (-20.0 10.0)
           (0.0 20.0)
  end
  begin
     id 18 
     name lhumerus
     direction 1 -4.48962e-011 -5.62711e-019   
     length 5.24318   
     axis 180 -30 -90   XYZ
    dof rx ry rz
    limits (-60.0 90.0)
           (-90.0 90.0)
           (-90.0 90.0)
  end
  begin
     id 19
     name lradius
     direction 1 -4.48966e-011 7.90625e-027   
     length 2.98999   
     axis 180 -30 -90   XYZ
    dof rx
    limits (-10.0 170.0)
  end
  begin
     id 20
     name lwrist
     direction 1 -4.48959e-011 1.61068e-026   
     length 1.49499   
     axis -9.31229e-015 90 90   XYZ
    dof ry
    limits (-180.0 0.0)
 end
  begin
     id 21 
     name lhand
     direction 1 -4.49017e-011 3.22136e-026   
     length 0.726745   
     axis -2.0555e-014 90 90   XYZ
    dof rx rz
    limits (-90.0 90.0)
           (-45.0 45.0)
  end
  begin
     id 22 
     name lfingers
     direction 1 -4.4898e-011 6.44272e-026   
     length 0.58592   
     axis -4.11101e-014 90 90   XYZ
    dof rx
    limits (0.0 90.0)
  end
  begin
     id 23
     name lthumb
     direction 0.707107 -6.34922e-011 0.707107   
     length 0.841268   
     axis -90 45 2.85299e-015   XYZ
    dof rx rz
    limits (-45.0 45.0)
           (-45.0 45.0)
  end
  begin
     id 24 
     name rclavicle
     direction -0.972232 0.230238 0.0419005   
     length 3.40416  
     axis 0 0 0   XYZ 
    dof ry rz
    limits (-10.0 20.0)
           (-20.0 0.0)
  end
  begin
     id 25 
     name rhumerus
     direction -1 -4.48976e-011 2.48487e-027  
     length 5.37045   
     axis 180 30 90   XYZ
    dof rx ry rz
    limits (-90.0 60.0)
           (-90.0 90.0)
           (-90.0 90.0)
  end
  begin
     id 26 
     name rradius
     direction -1 -4.48942e-011 7.87951e-027   
     length 2.92792   
     axis 180 30 90   XYZ
    dof rx
    limits (-10.0 170.0)
  end
  begin
     id 27 
     name rwrist
     direction -1 -4.48969e-011 1.61068e-026   
     length 1.46396   
     axis -9.31229e-015 -90 -90   XYZ
    dof ry
    limits (-180.0 0.0)
  end
  begin
     id 28
     name rhand
     direction -1 -4.49043e-011 3.22136e-026   
     length 0.784497   
     axis -2.0555e-014 -90 -90   XYZ
    dof rx rz
    limits (-90.0 90.0)
           (-45.0 45.0)
  end
  begin
     id 29
     name rfingers
     direction -1 -4.48823e-011 6.44272e-026   
     length 0.632482   
     axis -4.11101e-014 -90 -90   XYZ
    dof rx
    limits (0.0 90.0)
  end
  begin
     id 30
     name rthumb
     direction -0.707107 -6.34923e-011 0.707107   
     length 0.908121   
     axis -90 -45 -2.85299e-015   XYZ
    dof rx rz
    limits (-45.0 45.0)
           (-45.0 45.0)
  end
:hierarchy
  begin
    root lhipjoint rhipjoint lowerback
    lhipjoint lfemur
    lfemur ltibia
    ltibia lfoot
    lfoot ltoes
    rhipjoint rfemur
    rfemur rtibia
    rtibia rfoot
    rfoot rtoes
    lowerback upperback
    upperback thorax
    thorax lowerneck lclavicle rclavicle
    lowerneck upperneck
    upperneck head
    lclavicle lhumerus
    lhumerus lradius
    lradius lwrist
    lwrist lhand lthumb
    lhand lfingers
    rclavicle rhumerus
    rhumerus rradius
    rradius rwrist
    rwrist rhand rthumb
    rhand rfingers
  end

#!OML:ASF E:\Style6\Style6.ASF
:FULLY-SPECIFIED
:DEGREES
1
root 0.240903 16.4216 0.568371 16.9426 -0.950033 -1.9127
lowerback 6.54073 -1.29321 0.233573
upperback -10.4226 -1.55653 1.54194
thorax -15.1725 -0.64431 1.89513
lowerneck -11.248 0.460741 2.2405
upperneck 23.5825 1.54437 -5.69031
head 9.32219 0.296352 -2.16794
rclavicle -1.08928e-014 4.12478e-015
rhumerus -32.3572 -8.97707 -30.0227
rradius 66.4047
rwrist 4.95636
rhand 5.74588 -5.10483
rfingers 7.12502
rthumb 31.0811 -32.4908
lclavicle -1.08928e-014 4.12478e-015
lhumerus -47.5556 25.4558 35.1012
lradius 70.6408
lwrist -12.1903
lhand -22.0966 23.4748
lfingers 7.12502
lthumb 4.31548 53.4109
rfemur -47.1952 -15.8524 24.8673
rtibia 57.5253
rfoot -16.1068 16.9886
rtoes 16.9143
lfemur -45.5835 13.9885 -18.2843
ltibia 58.9778
lfoot -24.3896 -7.71463
ltoes -14.6765
2
root 0.243076 16.4252 0.567916 16.9238 -0.998267 -1.97022
lowerback 6.49449 -1.27464 0.201009
upperback -10.4195 -1.53634 1.54016
thorax -15.1383 -0.631783 1.90567
lowerneck -11.2822 0.4658 2.33817
upperneck 23.6491 1.55558 -5.78115
head 9.35359 0.299211 -2.21624
rclavicle -4.10925e-015 5.76476e-015
rhumerus -32.2898 -9.7676 -29.9295
rradius 66.5081
rwrist 5.38781
rhand 5.66249 -5.08266
rfingers 7.12502
rthumb 31.0017 -32.4838
lclavicle -4.10925e-015 5.76476e-015
lhumerus -47.5952 25.4634 35.1898
lradius 70.5763
lwrist -12.0499
lhand -21.5153 24.4566
lfingers 7.12502
lthumb 4.87684 54.3805
rfemur -47.1418 -15.8595 24.9279
rtibia 57.433
rfoot -16.0916 16.9399
rtoes 16.5369
lfemur -45.5187 13.9607 -18.216
ltibia 58.9379
lfoot -24.4396 -7.47182
ltoes -15.442
3
root 0.245253 16.4298 0.565937 16.937 -1.03992 -2.06345
lowerback 6.52962 -1.25278 0.201907
upperback -10.499 -1.50169 1.56993
thorax -15.2591 -0.611438 1.93591
lowerneck -11.163 0.451034 2.34372
upperneck 23.6893 1.54446 -5.81402
head 9.34467 0.292158 -2.23016
rclavicle 3.76138e-015 -1.07841e-014
rhumerus -32.3098 -10.4291 -29.8175
rradius 66.6244
rwrist 5.86933
rhand 5.43431 -4.92097
rfingers 7.12502
rthumb 30.7841 -32.3634
lclavicle 3.76138e-015 -1.07841e-014
lhumerus -47.7288 25.3896 35.2113
lradius 70.5026
lwrist -11.9043
lhand -20.7283 24.9194
lfingers 7.12502
lthumb 5.63664 54.8244
rfemur -47.0985 -15.8176 25.0239
rtibia 57.2981
rfoot -16.044 16.8348
rtoes 15.9558
lfemur -45.5201 13.9432 -18.1183
ltibia 58.9211
lfoot -24.4426 -7.39903
ltoes -15.3711
4
root 0.246889 16.4337 0.565455 16.9574 -1.04348 -2.25338
lowerback 6.49641 -1.22791 0.288643
upperback -10.5418 -1.44746 1.63048
thorax -15.2929 -0.590596 1.94504
lowerneck -11.0798 0.436906 2.38984
upperneck 23.7084 1.53216 -5.87821
head 9.33553 0.284606 -2.26176
rclavicle 1.57785e-015 -2.98177e-015
rhumerus -32.3064 -11.0191 -29.7424
rradius 66.7625
rwrist 6.23034
rhand 5.01409 -4.79757
rfingers 7.12502
rthumb 30.3834 -32.3147
lclavicle 1.57785e-015 -2.98177e-015
lhumerus -47.7896 25.4205 35.2656
lradius 70.469
lwrist -11.7642
lhand -20.0155 25.1288
lfingers 7.12502
lthumb 6.32488 55.0144
rfemur -47.0418 -15.7916 25.2374
rtibia 57.1678
rfoot -15.9307 16.9156
rtoes 16.1801
lfemur -45.5296 13.9343 -17.9058
ltibia 58.9019
lfoot -24.4247 -7.35083
ltoes -15.0505
5
root 0.249122 16.4395 0.565932 16.9511 -1.06495 -2.40995
lowerback 6.42383 -1.21789 0.346963
upperback -10.5378 -1.41832 1.69312
thorax -15.2419 -0.57945 1.97417
lowerneck -11.0495 0.457574 2.46726
upperneck 23.7039 1.57158 -5.98669
head 9.33128 0.298729 -2.30808
rclavicle -1.59369e-014 9.74045e-015
rhumerus -32.2327 -11.5872 -29.7644
rradius 66.8647
rwrist 6.45401
rhand 4.34998 -4.64358
rfingers 7.12502
rthumb 29.7498 -32.2759
lclavicle -1.59369e-014 9.74045e-015
lhumerus -47.8244 25.546 35.3245
lradius 70.4591
lwrist -11.6127
lhand -19.1722 25.6637
lfingers 7.12502
lthumb 7.13892 55.5233
rfemur -46.9515 -15.7549 25.3926
rtibia 57.0277
rfoot -15.7745 17.032
rtoes 16.6544
lfemur -45.4925 13.9247 -17.7252
ltibia 58.8801
lfoot -24.434 -7.22185
ltoes -15.436
6
root 0.252099 16.4447 0.566764 16.9015 -1.10412 -2.43407
lowerback 6.36415 -1.19424 0.285446
upperback -10.5058 -1.3931 1.71009
thorax -15.1625 -0.560353 2.01938
lowerneck -11.0489 0.478139 2.58461
upperneck 23.6821 1.60816 -6.12223
head 9.32688 0.312056 -2.37075
rclavicle 8.2682e-015 -1.04362e-015
rhumerus -32.2406 -12.2372 -29.7625
rradius 66.9962
rwrist 6.73896
rhand 3.62916 -4.40623
rfingers 7.12502
rthumb 29.0616 -32.1594
lclavicle 8.2682e-015 -1.04362e-015
lhumerus -47.7859 25.6352 35.4143
lradius 70.4476
lwrist -11.4157
lhand -18.2073 25.7849
lfingers 7.12502
lthumb 8.07023 55.6108
rfemur -46.8387 -15.7614 25.3946
rtibia 56.9004
rfoot -15.7549 17.0434
rtoes 16.4267
lfemur -45.3843 13.8803 -17.6885
ltibia 58.8409
lfoot -24.4809 -6.93061
ltoes -16.4396
7
root 0.255182 16.4494 0.568927 16.8732 -1.07606 -2.53079
lowerback 6.23869 -1.20405 0.309502
upperback -10.4713 -1.39729 1.77011
thorax -15.0382 -0.562323 2.06807
lowerneck -11.0198 0.519603 2.6472
upperneck 23.6424 1.6703 -6.19728
head 9.31159 0.339539 -2.39971
rclavicle 4.10552e-014 1.78906e-015
rhumerus -32.1703 -12.9192 -29.7848
rradius 67.0497
rwrist 7.11179
rhand 2.91833 -4.09008
rfingers 7.12502
rthumb 28.3825 -31.9583
lclavicle 4.10552e-014 1.78906e-015
lhumerus -47.8144 25.6266 35.4592
lradius 70.4512
lwrist -11.132
lhand -17.3899 25.6883
lfingers 7.12502
lthumb 8.85911 55.4823
rfemur -46.7322 -15.8026 25.4996
rtibia 56.7608
rfoot -15.633 17.0914
rtoes 16.9448
lfemur -45.3105 13.8166 -17.5553
ltibia 58.804
lfoot -24.4212 -6.9432
ltoes -16.048
8
root 0.258823 16.4551 0.573454 16.81 -1.07585 -2.61289
lowerback 6.13414 -1.20693 0.318168
upperback -10.4148 -1.39409 1.83106
thorax -14.9005 -0.559222 2.12474
lowerneck -11.0662 0.548115 2.68564
upperneck 23.6629 1.72437 -6.28497
head 9.33136 0.357865 -2.43132
rclavicle 2.5724e-014 -2.21148e-014
rhumerus -32.0602 -13.5734 -29.8556
rradius 67.0833
rwrist 7.45196
rhand 2.08741 -3.91078
rfingers 7.12502
rthumb 27.5882 -31.9086
lclavicle 2.5724e-014 -2.21148e-014
lhumerus -47.8561 25.5699 35.5004
lradius 70.5056
lwrist -10.8913
lhand -16.7924 26.3778
lfingers 7.12502
lthumb 9.43568 56.1466
rfemur -46.5578 -15.8292 25.5519
rtibia 56.6291
rfoot -15.4268 17.273
rtoes 18.1061
lfemur -45.1798 13.8036 -17.45
ltibia 58.7593
lfoot -24.4834 -6.90301
ltoes -16.1535
9
root 0.262744 16.4599 0.577548 16.7226 -1.08526 -2.69232
lowerback 6.06349 -1.20277 0.311119
upperback -10.3736 -1.3826 1.89424
thorax -14.8035 -0.549685 2.19285
lowerneck -10.9845 0.567208 2.76422
upperneck 23.6011 1.76464 -6.41594
head 9.29783 0.371664 -2.48428
rclavicle 6.09399e-015 -8.05078e-015
rhumerus -31.9972 -14.1182 -29.9585
rradius 67.0935
rwrist 7.64319
rhand 1.11108 -3.77386
rfingers 7.12502
rthumb 26.6542 -31.9173
lclavicle 6.09399e-015 -8.05078e-015
lhumerus -47.9325 25.449 35.5596
lradius 70.5864
lwrist -10.7107
lhand -16.2011 27.2892
lfingers 7.12502
lthumb 10.0062 57.0313
rfemur -46.3647 -15.8438 25.5906
rtibia 56.5144
rfoot -15.3351 17.353
rtoes 18.4343
lfemur -45.0203 13.802 -17.34
ltibia 58.7234
lfoot -24.5323 -6.96937
ltoes -15.9168
10
root 0.265756 16.4661 0.581363 16.6749 -1.10479 -2.73639
lowerback 5.98253 -1.22011 0.205378
upperback -10.3729 -1.40863 1.99912
thorax -14.7447 -0.543271 2.3707
lowerneck -10.8506 0.611534 2.85271
upperneck 23.5326 1.85073 -6.59735
head 9.25519 0.403302 -2.55106
rclavicle -9.93923e-016 1.59028e-015
rhumerus -31.8947 -14.6921 -30.0429
rradius 67.0889
rwrist 7.94636
rhand 0.392078 -3.48665
rfingers 7.12502
rthumb 25.9659 -31.7329
lclavicle -9.93923e-016 1.59028e-015
lhumerus -48.1068 25.1852 35.6535
lradius 70.6951
lwrist -10.3494
lhand -15.5818 27.887
lfingers 7.12502
lthumb 10.6035 57.5995
rfemur -46.2558 -15.861 25.6121
rtibia 56.4216
rfoot -15.4348 17.2859
rtoes 17.45
lfemur -44.9168 13.8192 -17.2954
ltibia 58.675
lfoot -24.5392 -6.93918
ltoes -15.9968
11
root 0.267975 16.4688 0.582317 16.6315 -1.10398 -2.78732
lowerback 5.98512 -1.24238 0.0846447
upperback -10.4158 -1.43949 2.1236
thorax -14.792 -0.534098 2.58461
lowerneck -10.7176 0.660098 2.8956
upperneck 23.5497 1.9492 -6.74783
head 9.24306 0.439061 -2.59973
rclavicle -9.00743e-016 -3.77691e-015
rhumerus -31.7934 -15.3495 -30.0692
rradius 66.9832
rwrist 8.52219
rhand -0.130684 -2.98478
rfingers 7.12502
rthumb 25.4652 -31.3035
lclavicle -9.00743e-016 -3.77691e-015
lhumerus -48.3593 24.8818 35.7128
lradius 70.8401
lwrist -10.0066
lhand -14.9243 28.2866
lfingers 7.12502
lthumb 11.2378 57.9656
rfemur -46.1725 -15.8879 25.6595
rtibia 56.3493
rfoot -15.5579 17.1389
rtoes 16.2874
lfemur -44.8534 13.8391 -17.2498
ltibia 58.6412
lfoot -24.5666 -6.69055
ltoes -16.9053
